<svg width="15" height="15" viewBox="0 0 15 15" fill="none" xmlns="http://www.w3.org/2000/svg">
<path fill-rule="evenodd" clip-rule="evenodd" d="M12.2784 13.281C13.9408 11.9054 15 9.82638 15 7.5C15 5.17362 13.9408 3.09464 12.2784 1.71898C10.9808 0.645256 9.31576 0 7.5 0C5.68424 0 4.01919 0.645256 2.72163 1.71898C1.05919 3.09464 0 5.17362 0 7.5C0 9.82638 1.05919 11.9054 2.72163 13.281C4.01919 14.3547 5.68424 15 7.5 15C9.31576 15 10.9808 14.3547 12.2784 13.281ZM8.5 4.5C8.5 4.78022 8.38474 5.03353 8.19904 5.21509C8.01875 5.39136 7.77206 5.5 7.5 5.5C7.22386 5.5 6.97387 5.38807 6.7929 5.20712C6.61193 5.02615 6.5 4.77615 6.5 4.5C6.5 4.22385 6.61193 3.97385 6.7929 3.79288C6.97387 3.61193 7.22386 3.5 7.5 3.5C7.77614 3.5 8.02613 3.61193 8.2071 3.79288C8.38807 3.97385 8.5 4.22385 8.5 4.5ZM6.75 7.25C6.75 6.83579 7.08579 6.5 7.5 6.5C7.91421 6.5 8.25 6.83579 8.25 7.25V10.75C8.25 11.1642 7.91421 11.5 7.5 11.5C7.08579 11.5 6.75 11.1642 6.75 10.75V7.25Z" fill="white"/>
</svg>
